<?xml version="1.0" standalone="no"?><svg xmlns="http://www.w3.org/2000/svg" viewBox="0 0 1440 320"><path fill="#DAA520" fill-opacity="1" d="M0,256L26.7,266.7C53.3,277,107,299,160,272C213.3,245,267,171,320,138.7C373.3,107,427,117,480,133.3C533.3,149,587,171,640,170.7C693.3,171,747,149,800,117.3C853.3,85,907,43,960,58.7C1013.3,75,1067,149,1120,192C1173.3,235,1227,245,1280,208C1333.3,171,1387,85,1413,42.7L1440,0L1440,320L1413.3,320C1386.7,320,1333,320,1280,320C1226.7,320,1173,320,1120,320C1066.7,320,1013,320,960,320C906.7,320,853,320,800,320C746.7,320,693,320,640,320C586.7,320,533,320,480,320C426.7,320,373,320,320,320C266.7,320,213,320,160,320C106.7,320,53,320,27,320L0,320Z"></path></svg>